<svg width="63" height="95" viewBox="0 0 63 95" fill="none" xmlns="http://www.w3.org/2000/svg">
<path d="M49.0259 84.3864C48.5131 85.1478 47.265 83.407 46.2652 82.7164C45.4327 82.1379 44.4688 81.7015 43.5653 81.2497C43.2101 81.0722 42.875 81.1381 42.6669 81.4681C42.0633 82.4324 41.0837 82.5591 40.0942 82.6352C38.0947 82.7976 36.0901 82.9348 34.0856 83.0719C33.7252 83.0972 33.1568 83.2238 33.1517 82.7116C33.1414 82.2041 33.7198 82.3154 34.0804 82.3205C36.5265 82.341 38.871 82.026 41.2157 81.3155C41.7941 81.1429 41.4187 80.7166 41.038 80.5644C40.16 80.2143 39.3377 79.8843 38.3991 80.1887C37.4652 80.4883 36.4907 80.6508 35.5115 80.676C34.451 80.7064 33.3953 80.5545 32.3345 80.5392C31.9336 80.5341 31.6494 80.2904 31.6647 79.915C31.6801 79.5595 32.0349 79.4734 32.3447 79.4632C32.8572 79.4376 33.3697 79.4175 33.8774 79.4428C35.1054 79.4936 36.3184 79.6052 37.5413 79.4834C35.9885 78.0624 33.6133 77.4123 31.5531 77.3618C30.8424 77.3465 30.1371 77.3772 29.4267 77.4075C28.7771 77.4382 28.1933 77.4481 27.6047 77.1185C27.4269 77.0165 27.2089 76.9052 27.2294 76.6513C27.2649 76.2145 27.8688 76.3722 28.1479 76.3923C31.3095 76.6107 34.598 76.3418 37.643 77.3976C38.3179 77.6307 38.7847 77.9607 39.3531 78.3975C39.9925 78.8896 40.7739 79.265 41.5505 79.4987C42.0937 79.6611 42.6771 79.6966 43.2251 79.8338C43.4588 79.8894 43.6871 79.9655 43.9 80.0723C44.3214 80.2853 44.6005 80.6153 44.9557 80.9149C45.3109 81.2091 45.6917 81.4681 46.0824 81.7117C47.2902 82.473 49.5435 83.6251 49.0259 84.3864Z" fill="#21CC76"/>
<path d="M19.2112 88.5739C19.1403 88.7565 18.9929 88.8882 18.8458 89.0155C18.521 89.2895 18.2825 89.3045 17.8867 89.3605C17.6635 89.3912 17.4349 89.4318 17.2169 89.4977C16.8057 89.6144 16.4151 89.8072 16.0851 90.0812C15.5522 90.5177 15.2021 91.1217 14.8772 91.7206C14.4917 92.4263 14.116 93.1569 13.5428 93.7306C12.8116 94.4666 12.2281 94.365 11.3045 94.771C10.9797 94.913 10.589 95.1973 10.2539 94.7864C9.97481 94.4414 10.1324 94.0554 10.401 93.7507C10.6651 93.4617 10.721 93.3398 10.7514 92.9641C10.7718 92.6392 10.9697 92.3451 11.213 92.1369C11.5228 91.8779 11.9135 91.7308 12.2841 91.5684C13.6492 90.9845 14.8824 90.2638 14.5828 88.5483C14.4357 87.7211 14.1515 86.8735 13.451 86.3814C13.4056 86.3507 13.3599 86.3203 13.3091 86.2896C13.2077 86.234 13.106 86.1831 12.9945 86.1681C12.8727 86.1476 12.7509 86.1681 12.6342 86.2135C12.5021 86.2643 12.3653 86.3814 12.3704 86.5284C12.3755 86.6093 12.4209 86.6858 12.4717 86.7516C12.5427 86.8584 12.6239 86.9697 12.7 87.0816C12.8269 87.2642 12.9337 87.4621 12.9488 87.6856C12.9743 88.031 12.8522 88.3808 12.6696 88.6705C12.4414 89.0407 12.1217 89.3451 11.8221 89.6598C11.2792 90.2385 10.792 90.8832 10.1017 91.2944C9.35073 91.7407 8.51853 92.071 7.79278 92.5529C7.52359 92.7307 7.26494 92.944 6.95546 93.0402C6.81319 93.0859 6.62552 93.1214 6.43753 93.1317C6.13828 93.162 5.82369 93.1419 5.60021 93.0351C5.44803 92.9641 5.32622 92.8017 5.35148 92.6392C5.36682 92.558 5.41254 92.4922 5.45826 92.4263C6.04205 91.6039 6.86403 91.0251 7.45261 90.2082C7.77232 89.7615 8.07701 89.3045 8.351 88.8224C8.46258 88.6295 8.59462 88.4214 8.69085 88.2033V88.1982C10.4924 86.8632 12.3093 85.5586 14.1464 84.2851C14.4255 84.5082 14.7251 84.7062 15.055 84.8939H15.0601C15.126 84.9396 15.1918 84.9751 15.2628 85.0157C15.9329 85.3863 16.4253 85.9244 16.5011 86.7059C16.5317 87.0816 16.6331 87.5385 16.9835 87.7413C17.425 87.9952 17.8867 87.7058 18.3435 87.701C18.7851 87.6955 19.4296 88.0409 19.2112 88.5739Z" fill="#21CC76"/>
<path d="M62.2359 74.1744C60.0536 71.0632 56.9732 68.2308 53.1824 67.3476C50.6752 66.7641 48.2598 65.8506 45.8389 64.9824C45.7629 64.9572 45.6916 64.9268 45.6158 64.9012H45.6107C44.4738 64.5002 43.3321 64.1095 42.1696 63.7696C41.0382 63.4396 40.3073 62.8455 39.6474 61.8508C39.2213 61.2061 38.7746 60.5772 38.3027 59.9677C38.5211 60.9475 38.5361 61.9729 38.3584 62.9625V62.9673C38.7951 64.6627 38.9268 66.8402 39.5157 68.3274C39.5359 68.3782 39.5563 68.4287 39.5765 68.4796C39.6932 68.7485 39.8402 69.0276 40.0992 69.1699C40.7082 69.5152 41.1699 68.9211 41.2511 68.3782C41.2815 68.17 41.2716 67.7739 41.2716 67.3224C41.2664 66.358 41.2815 65.1346 41.7383 64.8657C41.9209 64.7592 42.1444 64.7541 42.3576 64.764C43.1035 64.7947 43.875 64.9367 44.4789 65.3735C44.5195 65.4039 44.555 65.4342 44.5905 65.4697C44.9965 65.8147 45.235 66.3327 45.6004 66.7081C45.7881 66.9064 46.0167 67.1296 46.3006 67.175C46.6913 67.236 46.9199 66.9009 47.2853 66.891C47.4832 66.8808 47.661 67.0129 47.7623 67.1804C47.8688 67.3428 47.9094 67.5408 47.935 67.7333C48.0363 68.3987 47.62 70.7127 48.6099 70.8601C49.1882 70.9461 49.1985 70.3425 49.3151 69.9616C49.4318 69.576 49.2643 68.2004 49.914 68.2155C50.1272 68.2209 50.3149 68.3833 50.4063 68.5758C50.4978 68.7689 50.5179 68.987 50.5281 69.2003C50.579 70.0835 50.4265 76.0523 51.8984 75.7731C52.299 75.697 52.2737 75.1589 52.3143 74.7835C52.5023 73.0373 52.558 71.2812 52.5225 69.5303C52.5174 69.1849 52.4566 68.7891 52.9183 68.7031C53.4106 68.6065 53.9637 68.9921 54.0702 69.3931C54.2732 70.1548 54.192 70.7482 54.1514 71.5198C53.9992 74.215 53.8675 76.9102 53.7406 79.6102C53.7201 80.0975 54.0552 80.5493 54.5373 80.6155C55.3391 80.722 55.2733 79.8842 55.3135 79.3665C55.4302 77.9152 55.4558 76.4587 55.5524 75.007C55.664 73.3117 55.9987 71.0021 56.6688 70.6216C58.2418 69.7231 58.4042 73.7632 58.3687 74.4992C58.2875 76.1335 58.0186 77.763 57.572 79.3365C57.1509 80.8288 56.4252 82.2293 56.4149 83.813C56.4149 84.4014 56.6279 84.8078 57.2369 84.9296C57.7903 85.0463 58.1606 84.7569 58.3486 84.2799C58.6529 83.4981 58.9017 82.6862 58.9371 81.8488C58.9777 80.9858 59.0132 80.1128 59.4394 79.3365C59.8151 78.6458 60.216 78.1128 60.4749 77.3668C60.6374 76.9051 60.896 76.372 61.3679 76.1642C61.8401 75.9612 62.3625 76.027 62.5454 75.4128C62.6723 74.9917 62.4894 74.5347 62.2359 74.1744Z" fill="#21CC76"/>
<path d="M38.3585 62.9624C38.2722 62.6174 38.1709 62.2925 38.049 61.998C37.3943 60.3941 36.3338 58.9581 34.9738 57.8815C34.6336 57.6078 34.2378 57.3488 33.8014 57.3692C33.0453 57.3996 32.5324 58.2016 32.1926 58.7902C31.7156 59.6178 31.4972 60.5364 31.2283 61.4346C30.1576 65.0027 29.0614 68.5609 28.8177 72.3068C28.8024 72.5399 28.7771 72.7686 28.7164 72.9917V72.9969C28.5997 73.4893 28.3458 73.9002 27.7723 74.0476C27.6607 74.0779 27.5488 74.0779 27.4324 74.0629H27.4273C26.3563 73.9206 25.1385 72.1236 24.6714 71.3879C24.4281 71.007 24.2149 70.6061 23.8952 70.2815C23.4738 69.8499 22.9766 69.728 22.3928 69.8144C20.6271 70.0785 19.206 71.0125 17.8306 72.0376C17.3839 72.3775 17.1557 72.8849 17.5566 73.3572C17.922 73.7886 18.4649 74.2199 18.9368 74.5451C19.3633 74.8342 19.8099 74.9761 20.3019 75.1034C19.815 75.6156 18.8811 75.6006 18.2622 75.3873C17.0134 74.9509 15.9935 73.6671 15.1156 72.7225C14.0701 71.596 13.0957 70.4033 12.1519 69.1902C11.5937 68.4644 10.4824 68.0634 10.264 69.241C10.122 69.9819 10.3401 70.7586 10.4517 71.4793C10.6445 72.7331 10.9491 73.9408 11.8728 74.8594C12.086 75.0727 12.4511 75.4433 12.1771 75.7429C11.7916 76.1691 10.9594 75.4024 10.6038 75.1996C9.48742 74.5653 8.34062 74.3875 7.29005 74.8594C6.92974 75.0167 6.58477 75.2553 6.25483 75.575C5.453 76.3517 4.1083 78.0371 4.29597 79.2701C4.46861 80.3969 6.07707 80.7016 6.97034 80.9098C7.61488 81.0569 8.21369 81.1685 8.88349 81.133C9.52802 81.1023 10.1879 81.0214 10.8273 81.1634C11.3501 81.2852 11.8271 81.5643 12.2126 81.9349C12.6139 82.3154 12.8114 82.7976 13.1363 83.2293C13.4461 83.6504 13.7757 83.9906 14.1462 84.2851C12.3092 85.5587 10.4923 86.8633 8.6907 88.1982C8.79749 87.9597 8.86335 87.7161 8.81251 87.4571C8.73642 87.0817 8.46754 86.8326 8.12737 86.6705C7.81278 86.5234 7.45758 86.4422 7.11261 86.4064C7.06178 86.4064 6.75709 86.3302 6.78779 86.4217C6.81816 86.508 7.57939 87.0305 7.12252 87.772C6.66086 88.5228 6.05693 89.1777 5.37691 89.7359C5.03673 90.0151 4.67642 90.2741 4.30108 90.5075C4.03189 90.6802 3.69203 90.9341 3.38255 90.6751C3.16931 90.5024 3.14373 90.1727 3.2454 89.9137C3.34195 89.6598 3.55008 89.452 3.60571 89.1828C3.76813 88.472 2.91066 87.9543 2.31664 87.9392C1.97167 87.9344 1.62639 87.9898 1.28653 87.9345C0.890733 87.8683 0.525304 87.6348 0.291915 87.3049C-0.16495 86.65 0.0431813 85.6856 0.0735538 84.9448C0.114157 84.0261 0.185453 83.102 0.352661 82.1987C0.591485 80.9098 1.16472 79.7219 2.06791 78.7627C3.49925 77.2451 4.58019 75.2658 5.56969 73.4384C5.58983 73.4026 5.6103 73.3671 5.63076 73.332C6.55952 71.6366 7.70632 70.0478 8.72619 68.3985C9.88354 66.5305 11.2992 66.4138 12.6746 68.1651C13.4966 69.2052 14.3694 70.2003 15.2576 71.1797C15.8819 71.8701 16.4654 71.941 17.2672 71.464C19.4748 70.1696 21.3221 68.4951 22.8903 66.4851C24.4179 64.5308 25.925 62.5461 27.0871 60.3586C28.2036 58.2572 30.7005 54.3898 33.6543 55.4555C34.0194 55.5879 34.3394 55.8364 34.6387 56.0851C36.0192 57.2372 37.2216 58.5517 38.3029 59.9679C38.5209 60.9473 38.5363 61.9727 38.3585 62.9624Z" fill="#1AA093"/>
<path d="M26.5719 48.528C24.9968 49.6908 24.5618 51.9176 23.5755 53.779C23.3167 54.2601 23.0775 54.7404 22.8618 55.2211C21.8899 57.3508 20.5782 59.3742 19.2088 61.4258C18.2034 62.9182 17.1115 64.1535 15.8909 65.1709C15.3739 64.4722 14.9332 63.8574 14.5263 63.2591C13.3198 61.4649 12.046 60.7888 11.012 60.5761C10.72 60.5145 10.4519 60.4923 10.2076 60.4923C9.22124 60.4923 7.40182 60.8891 5.8985 63.427C5.81254 63.5665 5.7308 63.7119 5.64966 63.863C5.22346 64.6676 4.7686 65.4892 4.33305 66.2833C3.72496 67.3788 3.10723 68.4968 2.51332 69.6536C2.13991 70.3805 1.77614 71.1238 1.43138 71.8897C1.11558 72.588 0.737334 73.248 0.334961 72.5771V27.1049C0.334961 26.4006 0.478536 25.6741 0.741858 24.9695L25.7776 47.5968C26.3284 48.0609 26.0311 48.0752 26.5719 48.528" fill="#1AA093"/>
<path d="M62.673 28.3487V63.5453C62.673 64.2014 61.9196 64.5375 61.463 64.0895C59.5102 62.1528 56.9625 60.3227 53.6563 59.5227C51.4264 58.9836 49.2427 58.1299 47.3613 57.3669C45.9617 56.8015 49.1966 57.7403 47.3613 57.3669C47.3151 57.335 42.2867 55.6278 42.0303 55.2225C40.4411 52.7309 37.2683 49.3217 34.9922 47.465C35.9542 46.0005 34.9922 47.465 34.9922 47.465C34.5256 47.1982 32.9177 46.247 32.2517 46.3578C31.4314 46.1656 28.4672 46.4922 27.647 46.668C26.714 46.871 27.3608 48.0105 26.5715 48.5281C25.9922 48.0958 27.2617 47.1182 26.6724 46.6752C38.7289 40.4971 50.8626 34.0202 62.519 26.7588C62.6217 27.2711 62.673 27.8045 62.673 28.3487Z" fill="#18D3B4"/>
<path d="M48.0243 5.53236V13.3538C48.0243 14.2268 47.5575 14.9833 46.8775 15.3843H46.857V17.9676C46.248 18.3839 45.6392 18.7797 45.0251 19.1606V15.4044L44.69 15.3843C44.0151 14.9782 43.5535 14.2268 43.5535 13.3538V5.53236C43.5535 5.12628 43.0154 4.67479 42.2948 4.67479H22.122C21.4017 4.67479 20.8636 5.12628 20.8636 5.53236V13.3538C20.8636 14.2626 20.3661 15.0338 19.6455 15.4194H19.6203V20.7999H42.1781C33.5203 25.3932 23.9645 26.8599 13.7079 23.0126C12.0687 22.3987 10.3483 21.6524 8.57715 20.7999H17.7931V15.4194C17.7324 15.4194 17.6867 15.4297 17.6256 15.4348C16.8951 15.0543 16.3928 14.2674 16.3928 13.3538V5.53236C16.3928 2.48192 18.9604 -8.62441e-07 22.122 -8.62441e-07H42.2948C44.3399 -8.62441e-07 46.1415 1.04079 47.1515 2.60375C47.7046 3.45141 48.0243 4.4564 48.0243 5.53236Z" fill="#F6CA31"/>
<path d="M62.6295 26.9462C52.7324 32.8706 42.0142 39.3108 32.0401 45.7078C30.9598 46.4006 29.9335 46.3249 28.3102 47.2584C27.6817 47.6198 27.0471 47.9521 26.5716 48.528C18.1268 42.4271 9.51609 32.8949 0.604492 25.3474C1.64994 22.9416 4.49185 20.7996 7.8309 20.7996H8.5771C10.3483 21.6524 12.0687 22.3983 13.7075 23.0126C23.9641 26.8599 33.5203 25.3931 42.1777 20.7996H45.025V19.1602C45.6389 18.7794 46.2479 18.3838 46.857 17.9675V20.7996H55.1138C58.8336 20.7996 61.9294 23.4439 62.6295 26.9462Z" fill="#0FB7B7"/>
</svg>
